<?xml version="1.0" encoding="UTF-8" standalone="no"?> <svg id="Reference" xmlns="http://www.w3.org/2000/svg" viewBox="0 0 48 48"><defs><style>.cls-1{fill:#b6cee6;}.cls-2{fill:#8aafce;}.cls-3{fill:#dee7f6;}.cls-4{fill:#fff;}.cls-5{fill:#d65363;}.cls-6{fill:#09105a;}</style></defs><rect class="cls-1" x="14.698" y="12.517" width="35" height="24" rx="4" transform="translate(3.438 52.99) rotate(-82)"/><path class="cls-2" d="M22.194,9.479,18.436,36.216a4,4,0,0,0,3.405,4.518L35.7,42.682A4.987,4.987,0,0,0,39,38V11a4.967,4.967,0,0,0-1.342-3.387L26.712,6.074A4,4,0,0,0,22.194,9.479Z"/><rect class="cls-3" x="12" y="5" width="24" height="35" rx="4"/><path class="cls-1" d="M32.554,35.076,28.8,8.34A4.991,4.991,0,0,0,26.755,5H16.631l-2.148.3A4,4,0,0,0,12,9V36a4,4,0,0,0,4,4H30.255a4.958,4.958,0,0,0,2.3-4.924Z"/><rect class="cls-4" x="3.801" y="7.017" width="24" height="35" rx="4" transform="translate(-3.258 2.438) rotate(-8)"/><path class="cls-5" d="M11.807,25.861l3.348,2.522a1.667,1.667,0,0,0,2.334-.328l2.522-3.347h0a2.929,2.929,0,0,0-.576-4.1h0a2.928,2.928,0,0,0-4.1.576h0a2.929,2.929,0,0,0-4.1.577h0a2.929,2.929,0,0,0,.576,4.1Z"/><path class="cls-6" d="M42.7,7.31,36.249,6.4A4.985,4.985,0,0,0,32,4H16a4.992,4.992,0,0,0-4.255,2.406L5.3,7.311a5.007,5.007,0,0,0-4.255,5.647L4.807,39.7a5,5,0,0,0,5.647,4.255l13.569-1.908L37.55,43.95a5.133,5.133,0,0,0,.709.05,5,5,0,0,0,4.931-4.3L46.95,12.96A5.006,5.006,0,0,0,42.7,7.31ZM35,9V36a3,3,0,0,1-3,3H30.073a4.963,4.963,0,0,0,.481-2.924L26.8,9.34A4.981,4.981,0,0,0,24.785,6H32A3,3,0,0,1,35,9ZM10.176,41.971a3.008,3.008,0,0,1-3.389-2.554L3.029,12.68A3,3,0,0,1,5.583,9.292L21.427,7.064a3,3,0,0,1,3.388,2.554l3.758,26.737a3,3,0,0,1-2.553,3.388ZM44.97,12.681,41.21,39.424a2.994,2.994,0,0,1-3.38,2.546L30.95,41H32a5.006,5.006,0,0,0,5-5V9a4.8,4.8,0,0,0-.049-.482l5.468.772A3.005,3.005,0,0,1,44.97,12.681Z"/><path class="cls-6" d="M21.562,22.4a3.93,3.93,0,0,0-6.407-2.472,3.929,3.929,0,0,0-3.949,6.733l3.347,2.523a2.667,2.667,0,0,0,3.734-.526L20.81,25.31A3.907,3.907,0,0,0,21.562,22.4Zm-2.35,1.707-2.523,3.348a.665.665,0,0,1-.933.131l-3.347-2.522a1.929,1.929,0,0,1,2.322-3.081,1,1,0,0,0,1.4-.2,1.928,1.928,0,1,1,3.08,2.321Z"/><path class="cls-6" d="M10.212,14.248l-1.9-2.762a1,1,0,0,0-1.772.249L5.47,14.915a1,1,0,1,0,1.9.636L7.8,14.268l.768,1.115a1,1,0,1,0,1.647-1.135Z"/><path class="cls-6" d="M25.5,32.854a1,1,0,0,0-1.267.629l-.43,1.285-.769-1.116a1,1,0,1,0-1.646,1.135l1.9,2.762a1,1,0,0,0,.823.432.949.949,0,0,0,.14-.009,1,1,0,0,0,.808-.672l1.068-3.18A1,1,0,0,0,25.5,32.854Z"/></svg>