<?xml version="1.0" encoding="UTF-8" standalone="no"?> <svg id="Reference" xmlns="http://www.w3.org/2000/svg" viewBox="0 0 48 48"><defs><style>.cls-1{fill:#3160ad;}.cls-2{fill:#fff;}.cls-3{fill:#dee7f6;}.cls-4{fill:#d65363;}.cls-5{fill:#c94551;}.cls-6{fill:#58acdd;}.cls-7{fill:#508cd1;}.cls-8{fill:#09105a;}</style></defs><circle class="cls-1" cx="24" cy="24" r="21"/><circle class="cls-2" cx="24" cy="24" r="17"/><path class="cls-3" d="M34.725,15.924,23.742,21.738a4.806,4.806,0,0,0-2.005,2.006L15.924,34.725a1,1,0,0,0,1.351,1.351l10.983-5.814a4.806,4.806,0,0,0,2.005-2.006l5.813-10.981a1,1,0,0,0-1.351-1.351Z"/><path class="cls-3" d="M10,27A16.982,16.982,0,0,1,37.416,13.584,16.987,16.987,0,1,0,13.584,37.416,16.912,16.912,0,0,1,10,27Z"/><path class="cls-4" d="M33.192,14.808,22.211,20.621a3.832,3.832,0,0,0-1.59,1.59L14.808,33.192l10.981-5.813a3.832,3.832,0,0,0,1.59-1.59Z"/><path class="cls-5" d="M27.379,25.789l5.813-10.981L14.808,33.192l10.981-5.813A3.832,3.832,0,0,0,27.379,25.789Z"/><path class="cls-6" d="M14.808,33.192l10.981-5.813A3.808,3.808,0,0,0,26.7,26.7L21.3,21.3a3.808,3.808,0,0,0-.676.914Z"/><path class="cls-7" d="M26.7,26.7,24,24l-9.192,9.192,10.981-5.813A3.808,3.808,0,0,0,26.7,26.7Z"/><path class="cls-8" d="M24,2A22,22,0,1,0,46,24,22.025,22.025,0,0,0,24,2Zm0,42A20,20,0,1,1,44,24,20.023,20.023,0,0,1,24,44Z"/><path class="cls-8" d="M24,6A18,18,0,1,0,42,24,18.021,18.021,0,0,0,24,6Zm1,33.949V37a1,1,0,0,0-2,0v2.949A16,16,0,0,1,8.051,25H11a1,1,0,0,0,0-2H8.051A16,16,0,0,1,23,8.051V11a1,1,0,0,0,2,0V8.051A16,16,0,0,1,39.949,23H37a1,1,0,0,0,0,2h2.949A16,16,0,0,1,25,39.949Z"/><path class="cls-8" d="M32.725,13.924,21.742,19.738a4.806,4.806,0,0,0-2.005,2.006L13.924,32.725a1,1,0,0,0,1.351,1.351l10.983-5.814a4.806,4.806,0,0,0,2.005-2.006l5.813-10.981a1,1,0,0,0-1.351-1.351Zm-11.3,8.912,3.742,3.742-7.952,4.21Zm5.156,2.328-3.742-3.742,7.952-4.21Z"/></svg>