<?xml version="1.0" encoding="UTF-8" standalone="no"?> <svg id="Reference" xmlns="http://www.w3.org/2000/svg" viewBox="0 0 48 48"><defs><style>.cls-1{fill:#d65363;}.cls-2{fill:#c94551;}.cls-3{fill:#fff;}.cls-4{fill:#dee7f6;}.cls-5{fill:#ffc75d;}.cls-6{fill:#ef9943;}.cls-7{fill:#09105a;}</style></defs><path class="cls-1" d="M38.072,10.432l-13,8.256a2,2,0,0,1-2.144,0l-13-8.256A2,2,0,0,1,9,8.744V3a2,2,0,0,1,2-2H37a2,2,0,0,1,2,2V8.744A2,2,0,0,1,38.072,10.432Z"/><path class="cls-2" d="M38.072,6.432l-13,8.256a2,2,0,0,1-2.144,0l-13-8.256A2,2,0,0,1,9,4.744v4a2,2,0,0,0,.928,1.688l13,8.256a2,2,0,0,0,2.144,0l13-8.256A2,2,0,0,0,39,8.744v-4A2,2,0,0,1,38.072,6.432Z"/><polygon class="cls-3" points="21 1 21 17.46 16 14.29 16 1 21 1"/><polygon class="cls-3" points="32 1 32 14.29 27 17.46 27 1 32 1"/><polygon class="cls-4" points="27 13.464 27 17.46 32 14.29 32 10.289 27 13.464"/><polygon class="cls-4" points="16 10.289 16 14.29 21 17.46 21 13.464 16 10.289"/><circle class="cls-5" cx="24" cy="34" r="13"/><path class="cls-6" d="M27,44A12.985,12.985,0,0,1,16.439,23.439,12.991,12.991,0,1,0,34.561,41.561,12.925,12.925,0,0,1,27,44Z"/><polygon class="cls-3" points="24 38.498 19.776 40 19.899 35.519 17.165 31.966 21.466 30.698 24 27 26.534 30.698 30.835 31.966 28.101 35.519 28.224 40 24 38.498"/><path class="cls-7" d="M24,48A14,14,0,1,1,38,34,14.015,14.015,0,0,1,24,48Zm0-26A12,12,0,1,0,36,34,12.013,12.013,0,0,0,24,22Z"/><path class="cls-7" d="M37,0H11A3,3,0,0,0,8,3V8.744a2.983,2.983,0,0,0,1.392,2.532l13,8.257a3.013,3.013,0,0,0,3.216,0l13-8.257A2.986,2.986,0,0,0,40,8.744V3A3,3,0,0,0,37,0ZM31,13.739l-3,1.9V2.134A.993.993,0,0,0,27.973,2h3.054A.993.993,0,0,0,31,2.134Zm-11,1.9-3-1.9V2.134A.993.993,0,0,0,16.973,2h3.054A.993.993,0,0,0,20,2.134Zm-10-6.9V3a1,1,0,0,1,1-1h4.027A.993.993,0,0,0,15,2.134V12.469L10.463,9.588A1,1,0,0,1,10,8.744Zm14.536,9.1a1,1,0,0,1-1.072,0L22,16.915V2.134A.993.993,0,0,0,21.973,2h4.054A.993.993,0,0,0,26,2.134V16.915ZM38,8.744a1,1,0,0,1-.463.844h0L33,12.469V2.134A.993.993,0,0,0,32.973,2H37a1,1,0,0,1,1,1Z"/><path class="cls-7" d="M28.224,41a.992.992,0,0,1-.335-.058L24,39.56l-3.889,1.382a1,1,0,0,1-1.335-.969l.114-4.126-2.518-3.272a1,1,0,0,1,.511-1.569l3.959-1.167,2.333-3.4a1.038,1.038,0,0,1,1.65,0l2.333,3.4,3.959,1.167a1,1,0,0,1,.511,1.569L29.11,35.847l.114,4.126a1,1,0,0,1-1,1.027ZM24,37.5a.988.988,0,0,1,.335.058l2.849,1.013L27.1,35.546a1,1,0,0,1,.207-.637l1.844-2.4-2.9-.855a1,1,0,0,1-.543-.394L24,28.769l-1.709,2.494a1,1,0,0,1-.543.394l-2.9.855,1.844,2.4a1,1,0,0,1,.207.637l-.083,3.023,2.849-1.013A.988.988,0,0,1,24,37.5Z"/></svg>